<svg width="92" height="92" viewBox="0 0 92 92" fill="none" xmlns="http://www.w3.org/2000/svg">
<circle cx="46" cy="46" r="46" fill="white"/>
<path d="M17 66.4C20 61.1 22.5 56.6 25.1 52.2C27.3 53.4 27.3 53.4 23.6 62.9C25.3 63 26.8 63.1 27.7 63.1C29.4 59.9 30.2 56.5 32.3 54.6C35.7 51.4 40 51.7 43.7 54.6C48.3 58.2 52.7 62 56 64.7C60.9 63.9 64.7 63.3 69 62.5C68.4 61.3 67.8 59.9 67 58.3C65.4 58.9 64.1 59.5 62.7 59.8C56.8 61.1 51.2 56.8 51.8 50.8C52.4 44.7 53.7 38.7 54.8 32.4C61.3 38.7 66.1 49.4 63.3 51.8C61.3 48.6 59.4 45.4 57.5 42.3C56.9 42.5 56.2 42.6 55.6 42.8C56 47 55.2 52 57.2 55.1C60.1 59.5 64.2 55.1 68.1 53.6C70.5 57.8 72.8 61.7 75.5 66.5C61.9 66.5 49.2 66.5 36.6 66.5C36.8 64.2 36.8 64.2 48.2 62.9C44.2 60 42 55.2 36.8 56.3C31.5 57.4 32.9 62.5 32.3 66.6C27.3 66.4 22.8 66.4 17 66.4Z" fill="black"/>
<path d="M39.4001 27.4C40.9001 24.8 43.2002 20.9 46.0002 16C49.2002 21.4 51.7001 25.8 54.3001 30.2C52.0001 31.8 52.0001 31.8 45.9001 23.4C44.9001 24.8 44.1002 26.1 43.1002 27.6C44.3002 28.6 45.3001 29.4 46.2001 30.3C50.6001 34.8 49.6002 41.7 44.1002 44.6C42.6002 45.4 41.0002 45.9 39.5002 46.4C35.3002 47.9 31.1001 49.4 25.4001 51.5C29.2001 44.8 32.3002 39.3 35.6002 33.9C35.9002 33.4 37.2002 33.4 38.0002 33.2C38.1002 34.1 38.7001 35.1 38.3001 35.7C36.9001 38.5 35.3002 41.1 33.0002 45C38.2002 42.6 44.3002 43.2 45.0002 37.7C45.5002 35.1 42.0001 31.8 39.4001 27.4Z" fill="black"/>
</svg>
