<svg width="59" height="51" viewBox="0 0 59 51" fill="none" xmlns="http://www.w3.org/2000/svg">
<path d="M0 50.4C3 45.1 5.50001 40.6 8.10001 36.2C10.3 37.4 10.3 37.4 6.60001 46.9C8.30001 47 9.79998 47.1 10.7 47.1C12.4 43.9 13.2 40.5 15.3 38.6C18.7 35.4 23 35.7 26.7 38.6C31.3 42.2 35.7 46 39 48.7C43.9 47.9 47.7 47.3 52 46.5C51.4 45.3 50.8 43.9 50 42.3C48.4 42.9 47.1 43.5 45.7 43.8C39.8 45.1 34.2 40.8 34.8 34.8C35.4 28.7 36.7 22.7 37.8 16.4C44.3 22.7 49.1 33.4 46.3 35.8C44.3 32.6 42.4 29.4 40.5 26.3C39.9 26.5 39.2 26.6 38.6 26.8C39 31 38.2 36 40.2 39.1C43.1 43.5 47.2 39.1 51.1 37.6C53.5 41.8 55.8 45.7 58.5 50.5C44.9 50.5 32.2 50.5 19.6 50.5C19.8 48.2 19.8 48.2 31.2 46.9C27.2 44 25 39.2 19.8 40.3C14.5 41.4 15.9 46.5 15.3 50.6C10.3 50.4 5.8 50.4 0 50.4Z" fill="black"/>
<path d="M22.4001 11.4C23.9001 8.79999 26.2002 4.9 29.0002 0C32.2002 5.4 34.7001 9.79998 37.3001 14.2C35.0001 15.8 35.0001 15.8 28.9001 7.39999C27.9001 8.79999 27.1002 10.1 26.1002 11.6C27.3002 12.6 28.3001 13.4 29.2001 14.3C33.6001 18.8 32.6002 25.7 27.1002 28.6C25.6002 29.4 24.0002 29.9 22.5002 30.4C18.3002 31.9 14.1001 33.4 8.40015 35.5C12.2001 28.8 15.3002 23.3 18.6002 17.9C18.9002 17.4 20.2002 17.4 21.0002 17.2C21.1002 18.1 21.7001 19.1 21.3001 19.7C19.9001 22.5 18.3002 25.1 16.0002 29C21.2002 26.6 27.3002 27.2 28.0002 21.7C28.5002 19.1 25.0001 15.8 22.4001 11.4Z" fill="black"/>
</svg>
